HIERARCHY
ROOT hip
{
	OFFSET 0.000000 0.000000 0.000000 
	CHANNELS 6 Xposition Yposition Zposition Xrotation Zrotation Yrotation
	JOINT abdomen
	{
		OFFSET 0.000000 3.402643 0.000000 
		CHANNELS 3 Xrotation Zrotation Yrotation
		JOINT chest
		{
			OFFSET 0.000000 8.438565 -0.680529 
			CHANNELS 3 Xrotation Zrotation Yrotation
			JOINT neck
			{
				OFFSET 0.000000 10.207942 -0.272212 
				CHANNELS 3 Xrotation Zrotation Yrotation
				JOINT head
				{
					OFFSET 0.000000 3.130431 0.000000 
					CHANNELS 3 Xrotation Zrotation Yrotation
					End Site
					{
						OFFSET 0.000000 3.130435 0.000000 
					}
				}
			}
			JOINT lCollar
			{
				OFFSET 3.470700 6.669187 -0.816635 
				CHANNELS 3 Yrotation Zrotation Xrotation
				JOINT lShldr
				{
					OFFSET 3.198488 0.000000 0.000000 
					CHANNELS 3 Zrotation Yrotation Xrotation
					JOINT lForeArm
					{
						OFFSET 10.139888 0.000000 0.000000 
						CHANNELS 3 Yrotation Zrotation Xrotation
						JOINT lHand
						{
							OFFSET 8.370511 0.000000 0.000000 
							CHANNELS 3 Zrotation Yrotation Xrotation
							End Site
							{
								OFFSET 4.083176 0.000000 0.000000 
							}
						}
					}
				}
			}
			JOINT rCollar
			{
				OFFSET -3.470700 6.669187 -0.816635 
				CHANNELS 3 Yrotation Zrotation Xrotation
				JOINT rShldr
				{
					OFFSET -3.198488 0.000000 0.000000 
					CHANNELS 3 Zrotation Yrotation Xrotation
					JOINT rForeArm
					{
						OFFSET -10.139888 0.000000 0.000000 
						CHANNELS 3 Yrotation Zrotation Xrotation
						JOINT rHand
						{
							OFFSET -8.370511 0.000000 0.000000 
							CHANNELS 3 Zrotation Yrotation Xrotation
							End Site
							{
								OFFSET -4.083176 0.000000 0.000000 
							}
						}
					}
				}
			}
		}
	}
	JOINT lThigh
	{
		OFFSET 5.308129 -1.633274 1.361059 
		CHANNELS 3 Xrotation Zrotation Yrotation
		JOINT lShin
		{
			OFFSET -2.041588 -20.007561 0.000000 
			CHANNELS 3 Xrotation Zrotation Yrotation
			JOINT lFoot
			{
				OFFSET 0.000000 -19.190928 -1.224953 
				CHANNELS 3 Xrotation Yrotation Zrotation
				End Site
				{
					OFFSET 0.000000 -2.449906 4.627600 
				}
			}
		}
	}
	JOINT rThigh
	{
		OFFSET -5.308129 -1.633274 1.361059 
		CHANNELS 3 Xrotation Zrotation Yrotation
		JOINT rShin
		{
			OFFSET 2.041588 -20.007561 0.000000 
			CHANNELS 3 Xrotation Zrotation Yrotation
			JOINT rFoot
			{
				OFFSET 0.000000 -19.190928 -1.224953 
				CHANNELS 3 Xrotation Yrotation Zrotation
				End Site
				{
					OFFSET 0.000000 -2.449906 4.627600 
				}
			}
		}
	}
}
MOTION
Frames: 14
Frame Time: 0.016667
3.809206 49.351944 -0.589216 23.401014 14.626116 -20.171043 10.088650 -2.887872 2.502727 18.273529 -7.285877 4.134027 37.520515 -7.899652 -0.789942 -26.533962 4.561567 16.469723 -34.393242 30.000000 24.983948 -67.459595 -8.538286 -16.979881 -46.149349 17.594717 3.008885 15.119561 14.701221 -62.345024 34.165554 -30.000000 24.995253 43.037014 10.349805 65.762268 -33.919006 -47.541714 -64.839439 17.458567 -20.853552 -78.943161 -53.700115 14.638316 14.020466 34.844334 6.611939 0.070675 -1.470572 -10.147831 -11.995173 -61.021061 -9.959995 0.997110 55.330994 5.909753 5.430776 4.462598 0.360770 11.992763 
3.933151 49.110966 -0.513602 23.336710 13.964661 -20.655869 10.088650 -2.887872 2.502727 18.764692 -7.315455 4.095281 37.348019 -8.036338 -0.799630 -26.649611 4.638300 16.785831 -34.221596 29.992598 24.988590 -65.210854 -8.008039 -17.834122 -45.942314 19.159073 2.695118 15.515508 14.562756 -62.279312 34.496181 -30.000000 24.999264 42.717209 10.788046 65.549049 -32.889927 -46.323444 -64.847229 17.254124 -21.338699 -78.831894 -53.087162 15.219390 14.360538 33.235790 6.940617 0.264481 0.339067 -10.790832 -9.900501 -61.421322 -9.599036 1.150382 56.895248 6.719740 5.765102 4.111745 0.832159 13.697625 
4.057047 48.869987 -0.438068 23.281153 13.305273 -21.150442 10.088650 -2.887872 2.502727 19.255341 -7.335204 4.066222 37.175564 -8.173025 -0.809307 -26.773333 4.714370 17.110914 -34.042122 30.000000 24.982626 -62.961723 -7.439832 -18.672670 -45.737309 20.720865 2.373728 15.921288 14.430276 -62.222641 34.818485 -30.000000 25.000000 42.398579 11.215508 65.332138 -31.875355 -45.114243 -64.883087 17.051401 -21.820469 -78.732079 -52.488308 15.789867 14.688785 31.604460 7.262810 0.427294 2.174601 -11.343062 -7.802835 -61.829098 -9.227650 1.285758 58.459740 7.530271 6.100524 3.767749 1.314924 15.390346 
4.163177 48.628784 -0.392370 23.038855 12.833882 -21.297396 10.088650 -2.887872 2.502727 19.762259 -7.686890 3.960985 36.764664 -7.811805 -0.769251 -26.694248 4.635305 17.285252 -34.123280 29.996391 24.982862 -60.550636 -7.876483 -19.449371 -46.172680 21.777481 3.071813 15.285956 14.228791 -62.248215 34.533619 -30.000000 25.000000 42.720654 12.354915 65.222862 -30.498960 -44.059254 -64.403000 16.942347 -22.552971 -78.576591 -52.595390 16.365799 14.854482 32.411869 7.564721 0.443232 2.507001 -11.798277 -6.520189 -61.888596 -8.846811 1.400450 59.173817 7.793832 6.213075 3.234246 1.532261 15.548459 
4.269177 48.387829 -0.346861 22.799023 12.363401 -21.448046 10.088650 -2.887872 2.502727 20.281570 -8.019151 3.855895 36.365318 -7.450560 -0.738901 -26.615631 4.556339 17.459627 -34.213829 29.995731 24.990053 -58.131351 -8.289136 -20.232033 -46.635777 22.830168 3.783373 14.654880 14.035954 -62.275341 34.238892 -30.000000 24.996891 43.052670 13.485972 65.126526 -29.146593 -43.007896 -63.955631 16.831240 -23.275486 -78.423019 -52.720947 16.941193 15.006730 33.240364 7.863625 0.464806 2.831080 -12.231763 -5.251134 -61.945621 -8.475756 1.520147 59.898220 8.047932 6.345987 2.712921 1.746760 15.676476 
4.325882 48.238667 -0.372475 22.915672 12.089485 -20.743311 10.088650 -2.887872 2.502727 20.531500 -8.478243 3.741296 36.105396 -7.177176 -0.719506 -26.327927 4.123807 17.625935 -35.088768 29.997044 24.984304 -55.404266 -10.100660 -20.934183 -48.530029 23.355520 6.059035 13.058171 13.771035 -62.359463 33.631027 -30.000000 25.000000 44.754150 14.799526 65.533241 -27.568710 -42.227287 -64.323692 16.330591 -24.008322 -78.196571 -53.732117 17.367760 14.874347 33.476593 7.594031 0.387604 3.082425 -13.144543 -5.262714 -62.339798 -8.153749 1.635380 59.612381 8.164815 6.350786 1.835076 -0.155606 12.209968 
4.382543 48.090027 -0.398017 23.024778 11.810929 -20.040974 10.088650 -2.887872 2.502727 20.783276 -8.937420 3.626889 35.855438 -6.903789 -0.698897 -26.045715 3.682752 17.791922 -35.965816 29.998924 24.989069 -52.638748 -11.882038 -21.716366 -50.445812 23.802076 8.364070 11.469525 13.506417 -62.429871 33.024284 -30.000000 25.000000 46.485668 16.097664 65.998749 -25.995859 -41.461769 -64.700768 15.827894 -24.735971 -77.972618 -54.755985 17.793150 14.733884 33.725182 7.301765 0.320933 3.331713 -14.076244 -5.277224 -62.722271 -7.841424 1.762670 59.345047 8.292266 6.362025 0.845822 -1.971273 8.696938 
4.423136 48.137886 -0.396134 23.126608 11.762880 -19.156061 10.088650 -2.887872 2.502727 20.926945 -9.103590 3.580187 36.101856 -6.991659 -0.708595 -26.036631 3.089139 17.692654 -37.164379 29.999523 24.987293 -51.185226 -13.724668 -22.036304 -52.403400 24.100241 11.821440 10.516302 13.139714 -62.412464 32.366879 -30.000000 24.997370 47.841526 16.251331 66.522400 -25.321192 -42.105976 -64.058388 15.835638 -24.251266 -78.031982 -55.441460 17.221516 14.381108 33.205448 7.252843 0.331957 4.237912 -14.454198 -5.446972 -63.161354 -8.085384 1.701447 59.250626 8.223397 6.350732 0.657597 -3.388915 7.140842 
4.463836 48.185905 -0.394138 23.227058 11.701054 -18.282490 10.088650 -2.887872 2.502727 21.069300 -9.269674 3.541619 36.356976 -7.089307 -0.708597 -26.028456 2.485593 17.595352 -38.348484 29.993950 24.992847 -49.711063 -15.561719 -22.418720 -54.374165 24.301016 15.289329 9.564014 12.773497 -62.386093 31.712067 -30.000000 24.999161 49.199562 16.392282 67.061310 -24.623758 -42.747307 -63.380119 15.860665 -23.746607 -78.103592 -56.104595 16.654825 14.027701 32.666481 7.203674 0.362374 5.162858 -14.864460 -5.604935 -63.610325 -8.329496 1.642860 59.175419 8.165173 6.337018 0.438369 -4.769668 5.557523 
4.545417 48.293640 -0.349096 23.011255 11.509170 -18.079542 10.088650 -2.887872 2.502727 21.384762 -9.299207 3.512706 36.472103 -7.401734 -0.738900 -26.134590 2.001961 17.550182 -38.887402 29.996101 24.989931 -48.974979 -17.023069 -22.580748 -56.531425 24.450472 20.400650 8.888282 12.206763 -62.262039 31.383049 -29.861208 24.994604 50.334290 16.545185 67.497910 -25.304340 -44.649097 -59.830750 16.682276 -22.062508 -78.438477 -56.080940 16.258284 13.911302 32.129696 7.334964 0.412686 5.630018 -14.867784 -5.005391 -63.903107 -8.436996 1.644730 59.379868 7.950278 6.287690 1.276245 -4.692801 6.334291 
4.627250 48.401344 -0.303888 22.798782 11.325385 -17.888277 10.088650 -2.887872 2.502727 21.699255 -9.318894 3.491851 36.587563 -7.714159 -0.769244 -26.227009 1.527337 17.516357 -39.421432 29.995087 24.988480 -48.226597 -18.475698 -22.768635 -58.692001 24.421959 25.531643 8.194716 11.641419 -62.147018 31.071224 -29.714874 25.000000 51.469307 16.697079 67.935318 -25.824905 -46.583488 -56.161373 17.493610 -20.358648 -78.747612 -56.043938 15.868595 13.791069 31.621321 7.467214 0.472669 6.088598 -14.872230 -4.399016 -64.193703 -8.553908 1.633805 59.574085 7.725640 6.240412 2.096869 -4.619136 7.093698 
4.804367 48.496151 -0.196135 22.108929 10.927391 -18.890186 10.088650 -2.887872 2.502727 22.062222 -9.397261 3.453298 36.059414 -7.753234 -0.759571 -26.183428 1.163507 17.611210 -39.210892 30.000000 24.992226 -49.179169 -19.469067 -22.480877 -60.450077 24.034590 31.585640 7.115531 10.682024 -62.040173 30.802105 -29.431425 25.000000 53.044983 17.085133 68.508583 -28.541420 -50.856236 -47.625008 18.011156 -18.259954 -78.964317 -55.058235 16.308447 14.190586 30.586433 7.291611 0.485277 6.327173 -15.166904 -2.948806 -64.321823 -8.485661 1.653340 59.815716 7.666663 6.241467 3.741713 -2.666072 9.191745 
4.981359 48.590691 -0.088406 21.427504 10.521479 -19.877731 10.088650 -2.887872 2.502727 22.425295 -9.475630 3.414757 35.532593 -7.792293 -0.759574 -26.138226 0.809409 17.697212 -38.995300 29.997684 24.990778 -50.145042 -20.446140 -22.175072 -62.136944 23.496504 37.583836 6.047137 9.732812 -61.915977 30.515612 -29.147774 24.994326 54.619518 17.461864 69.086365 -30.400455 -55.346157 -38.557209 18.524424 -16.151316 -79.160583 -54.076675 16.734888 14.592547 29.554228 7.106853 0.508685 6.603848 -15.472634 -1.472880 -64.439980 -8.417380 1.672665 60.066002 7.608709 6.271739 5.319997 -0.673220 11.243145 
5.113856 48.586578 0.011380 20.883097 10.256455 -21.103914 10.088650 -2.887872 2.502727 22.217140 -9.553714 3.405115 34.987213 -7.460340 -0.729218 -25.952944 0.771604 17.833778 -38.484161 29.995247 24.989002 -52.454010 -20.080153 -21.457764 -61.342216 22.610239 38.364109 5.563976 9.942966 -61.954556 30.338293 -28.973871 24.997480 55.704292 17.133904 69.618515 -31.814474 -57.978470 -34.031437 18.400085 -15.872209 -79.081131 -53.358284 17.401770 14.999355 28.990458 6.936571 0.511452 6.972381 -15.752016 -0.265509 -64.401016 -8.134357 1.753644 60.103207 7.647595 6.279234 5.894279 0.838634 11.204775 
